<svg width="26" height="26" viewBox="0 0 26 26" fill="none" xmlns="http://www.w3.org/2000/svg">
<path fill-rule="evenodd" clip-rule="evenodd" d="M16.513 5.13228C16.513 7.53835 18.4664 9.48886 20.876 9.48886C21.1413 9.48756 21.406 9.46208 21.6667 9.41276V18.0498C21.6667 21.6835 19.5233 23.8333 15.8843 23.8333H7.95855C4.31004 23.8333 2.16666 21.6835 2.16666 18.0498V10.1357C2.16666 6.50203 4.31004 4.33325 7.95855 4.33325H16.5892C16.538 4.59651 16.5125 4.8641 16.513 5.13228ZM14.2458 16.1379L17.3418 12.1428V12.1237C17.6068 11.7676 17.5392 11.2654 17.1894 10.9918C17.02 10.8611 16.8049 10.8045 16.593 10.835C16.3812 10.8654 16.1908 10.9804 16.0653 11.1535L13.4551 14.5113L10.483 12.1713C10.3133 12.0391 10.0974 11.9807 9.88412 12.0094C9.67081 12.038 9.47806 12.1512 9.34936 12.3235L6.14858 16.4518C6.03607 16.592 5.97551 16.7667 5.97711 16.9464C5.95854 17.3096 6.18785 17.6394 6.53507 17.749C6.88228 17.8586 7.25982 17.7203 7.45366 17.4125L10.1305 13.9501L13.1027 16.2806C13.2717 16.4169 13.489 16.4786 13.7046 16.4517C13.9202 16.4248 14.1155 16.3115 14.2458 16.1379Z" fill="white"/>
<ellipse opacity="0.4" cx="21.125" cy="4.87496" rx="2.70833" ry="2.70833" fill="white"/>
</svg>
