<svg width="27" height="27" viewBox="0 0 27 27" fill="none" xmlns="http://www.w3.org/2000/svg">
<path opacity="0.4" d="M13.5225 2.25C6.98625 2.25 2.25 7.5825 2.25 13.5C2.25 15.39 2.80125 17.3362 3.76875 19.1138C3.94875 19.4062 3.97125 19.7775 3.8475 20.1263L3.09375 22.6462C2.925 23.2537 3.4425 23.7038 4.01625 23.5238L6.28875 22.8487C6.9075 22.6462 7.39125 22.905 7.96613 23.2537C9.60862 24.2213 11.655 24.7162 13.5 24.7162C19.08 24.7162 24.75 20.4075 24.75 13.4663C24.75 7.48125 19.9125 2.25 13.5225 2.25Z" fill="white"/>
<path fill-rule="evenodd" clip-rule="evenodd" d="M13.478 14.9513C12.6793 14.9401 12.038 14.2988 12.038 13.5001C12.038 12.7126 12.6905 12.0601 13.478 12.0713C14.2768 12.0713 14.918 12.7126 14.918 13.5113C14.918 14.2988 14.2768 14.9513 13.478 14.9513ZM8.29135 14.9513C7.50385 14.9513 6.85135 14.2988 6.85135 13.5113C6.85135 12.7125 7.4926 12.0713 8.29135 12.0713C9.0901 12.0713 9.73135 12.7125 9.73135 13.5113C9.73135 14.2988 9.0901 14.94 8.29135 14.9513ZM17.2241 13.5113C17.2241 14.2988 17.8653 14.9513 18.6641 14.9513C19.4628 14.9513 20.1041 14.2988 20.1041 13.5113C20.1041 12.7126 19.4628 12.0713 18.6641 12.0713C17.8653 12.0713 17.2241 12.7126 17.2241 13.5113Z" fill="white"/>
</svg>
