<svg width="42" height="42" viewBox="0 0 42 42" fill="none" xmlns="http://www.w3.org/2000/svg">
<path opacity="0.4" d="M30.7195 12.7683C35.0087 12.7683 38.5 16.373 38.5 20.8033V29.6098C38.5 34.0294 35.0175 37.625 30.737 37.625H11.284C6.993 37.625 3.5 34.0221 3.5 29.5918V20.7853C3.5 16.3657 6.98425 12.7683 11.2665 12.7683H12.9115L30.7195 12.7683Z" fill="#193D9B"/>
<path d="M21.9559 28.0654L27.0466 22.8716C27.5716 22.3348 27.5716 21.4709 27.0431 20.9359C26.5146 20.4027 25.6624 20.4044 25.1374 20.9395L22.3496 23.7835L22.3496 5.74367C22.3496 4.98824 21.7459 4.375 21.0004 4.375C20.2566 4.375 19.6546 4.98824 19.6546 5.74367L19.6546 23.7835L16.8651 20.9395C16.3401 20.4044 15.4879 20.4027 14.9594 20.9359C14.6951 21.2043 14.5621 21.5545 14.5621 21.9064C14.5621 22.2548 14.6951 22.605 14.9559 22.8716L20.0466 28.0654C20.3004 28.3232 20.6434 28.4689 21.0004 28.4689C21.3591 28.4689 21.7021 28.3232 21.9559 28.0654Z" fill="#193D9B"/>
</svg>
