<svg width="29" height="29" viewBox="0 0 29 29" fill="none" xmlns="http://www.w3.org/2000/svg">
<path fill-rule="evenodd" clip-rule="evenodd" d="M9.38726 10.5292H19.6127C22.4612 10.5292 24.7708 12.7878 24.7708 15.5736V21.5389C24.7708 24.3247 22.4612 26.5833 19.6127 26.5833H9.38726C6.53868 26.5833 4.22913 24.3247 4.22913 21.5389V15.5736C4.22913 12.7878 6.53868 10.5292 9.38726 10.5292ZM14.4938 20.9398C15.0955 20.9398 15.5743 20.4715 15.5743 19.8831V17.2174C15.5743 16.6411 15.0955 16.1728 14.4938 16.1728C13.9045 16.1728 13.4256 16.6411 13.4256 17.2174V19.8831C13.4256 20.4715 13.9045 20.9398 14.4938 20.9398Z" fill="white"/>
<path opacity="0.4" d="M21.1733 8.93677V10.7139C20.7436 10.5938 20.2893 10.5338 19.8227 10.5338H19.0246V8.93677C19.0246 6.49923 16.9987 4.51798 14.5062 4.51798C12.0137 4.51798 9.98777 6.48722 9.97549 8.91275V10.5338H9.18968C8.71082 10.5338 8.25652 10.5938 7.82678 10.7259V8.93677C7.83906 5.3345 10.8227 2.41666 14.4816 2.41666C18.1897 2.41666 21.1733 5.3345 21.1733 8.93677Z" fill="white"/>
</svg>
