<svg width="96" height="36" viewBox="0 0 96 36" fill="none" xmlns="http://www.w3.org/2000/svg">
<path d="M13.94 14H9.9V4.18H5.12V14H1.08V0.659999H13.94V14ZM20.1395 14H16.0995V0.659999H23.2195C26.3395 0.659999 28.0195 2.74 28.0195 5.24C28.0195 7.72 26.3395 9.8 23.2195 9.8H20.1395V14ZM22.6995 6.28C23.3795 6.28 23.9195 5.94 23.9195 5.24C23.9195 4.52 23.3795 4.18 22.6995 4.18H20.1395V6.28H22.6995ZM35.9217 14.24C31.8017 14.24 28.6217 11.44 28.6217 7.34C28.6217 3.24 31.8017 0.439999 35.9217 0.439999C40.0417 0.439999 43.2217 3.24 43.2217 7.34C43.2217 11.44 40.0417 14.24 35.9217 14.24ZM35.9217 10.68C37.8617 10.68 39.1217 9.2 39.1217 7.34C39.1217 5.48 37.8617 4 35.9217 4C33.9817 4 32.7217 5.48 32.7217 7.34C32.7217 9.2 33.9817 10.68 35.9217 10.68ZM54.6342 14H50.5942V12.64C46.3742 12.24 43.9342 10.5 43.9342 7.34C43.9342 4.18 46.3742 2.46 50.5942 2.06V0.659999H54.6342V2.06C58.8342 2.46 61.2942 4.18 61.2942 7.34C61.2942 10.5 58.8342 12.24 54.6342 12.64V14ZM48.0342 7.34C48.0342 8.3 48.8742 8.86 50.5942 9.06V5.62C48.8742 5.84 48.0342 6.38 48.0342 7.34ZM57.1942 7.34C57.1942 6.38 56.3542 5.84 54.6342 5.62V9.06C56.3542 8.86 57.1942 8.3 57.1942 7.34ZM7.98 35H3.94V25.18H0.36V21.66H11.54V25.18H7.98V35ZM23.0945 35H12.9745V21.66H23.0945V25.18H17.0145V26.5H22.9545V30.02H17.0145V31.48H23.0945V35ZM31.5086 35.24C27.3286 35.24 24.1686 32.44 24.1686 28.34C24.1686 24.22 27.3286 21.44 31.5086 21.44C35.0086 21.44 36.7686 23.48 37.5686 25.32L34.0886 26.94C33.7486 25.9 32.7086 25 31.5086 25C29.5686 25 28.2686 26.48 28.2686 28.34C28.2686 30.2 29.5686 31.68 31.5086 31.68C32.7086 31.68 33.7486 30.78 34.0886 29.74L37.5686 31.34C36.7886 33.12 35.0086 35.24 31.5086 35.24ZM45.7339 35H41.6939V25.18H38.1139V21.66H49.2939V25.18H45.7339V35ZM54.6084 35H50.7284V21.66H54.7684V28.78L59.4084 21.66H63.5684V35H59.5284V27.44L54.6084 35ZM68.0284 35.24C66.7284 35.24 65.3484 34.96 64.3084 34.16L65.9484 31.08C66.3884 31.38 66.9884 31.68 67.6684 31.68C68.3684 31.68 68.7284 31.46 69.0084 31.04L64.3084 21.66H68.8284L71.2884 27.08L73.7684 21.66H78.2884L72.9484 32.32C72.1084 33.98 70.6084 35.24 68.0284 35.24ZM94.8497 35H90.8097V26.98L87.8297 35H86.0297L83.0497 26.98V35H79.0097V21.66H84.5897L86.9297 28.06L89.2697 21.66H94.8497V35Z" fill="white"/>
<rect x="63" width="33" height="14" fill="white"/>
</svg>
