<svg width="240" height="85" viewBox="0 0 240 85" fill="none" xmlns="http://www.w3.org/2000/svg">
<path d="M34.85 37H24.75V12.45H12.8V37H2.7V3.65H34.85V37ZM50.3488 37H40.2488V3.65H58.0488C65.8488 3.65 70.0488 8.85 70.0488 15.1C70.0488 21.3 65.8488 26.5 58.0488 26.5H50.3488V37ZM56.7488 17.7C58.4488 17.7 59.7988 16.85 59.7988 15.1C59.7988 13.3 58.4488 12.45 56.7488 12.45H50.3488V17.7H56.7488ZM89.8043 37.6C79.5043 37.6 71.5543 30.6 71.5543 20.35C71.5543 10.1 79.5043 3.1 89.8043 3.1C100.104 3.1 108.054 10.1 108.054 20.35C108.054 30.6 100.104 37.6 89.8043 37.6ZM89.8043 28.7C94.6543 28.7 97.8043 25 97.8043 20.35C97.8043 15.7 94.6543 12 89.8043 12C84.9543 12 81.8043 15.7 81.8043 20.35C81.8043 25 84.9543 28.7 89.8043 28.7ZM136.586 37H126.486V33.6C115.936 32.6 109.836 28.25 109.836 20.35C109.836 12.45 115.936 8.15 126.486 7.15V3.65H136.586V7.15C147.086 8.15 153.236 12.45 153.236 20.35C153.236 28.25 147.086 32.6 136.586 33.6V37ZM120.086 20.35C120.086 22.75 122.186 24.15 126.486 24.65V16.05C122.186 16.6 120.086 17.95 120.086 20.35ZM142.986 20.35C142.986 17.95 140.886 16.6 136.586 16.05V24.65C140.886 24.15 142.986 22.75 142.986 20.35ZM19.95 84H9.85V59.45H0.9V50.65H28.85V59.45H19.95V84ZM57.7363 84H32.4363V50.65H57.7363V59.45H42.5363V62.75H57.3863V71.55H42.5363V75.2H57.7363V84ZM78.7715 84.6C68.3215 84.6 60.4215 77.6 60.4215 67.35C60.4215 57.05 68.3215 50.1 78.7715 50.1C87.5215 50.1 91.9215 55.2 93.9215 59.8L85.2215 63.85C84.3715 61.25 81.7715 59 78.7715 59C73.9215 59 70.6715 62.7 70.6715 67.35C70.6715 72 73.9215 75.7 78.7715 75.7C81.7715 75.7 84.3715 73.45 85.2215 70.85L93.9215 74.85C91.9715 79.3 87.5215 84.6 78.7715 84.6ZM114.335 84H104.235V59.45H95.2848V50.65H123.235V59.45H114.335V84ZM136.521 84H126.821V50.65H136.921V68.45L148.521 50.65H158.921V84H148.821V65.1L136.521 84ZM170.071 84.6C166.821 84.6 163.371 83.9 160.771 81.9L164.871 74.2C165.971 74.95 167.471 75.7 169.171 75.7C170.921 75.7 171.821 75.15 172.521 74.1L160.771 50.65H172.071L178.221 64.2L184.421 50.65H195.721L182.371 77.3C180.271 81.45 176.521 84.6 170.071 84.6ZM237.124 84H227.024V63.95L219.574 84H215.074L207.624 63.95V84H197.524V50.65H211.474L217.324 66.65L223.174 50.65H237.124V84Z" fill="#1840A7"/>
<rect x="163" width="74" height="37" fill="#1840A7"/>
</svg>
