<svg width="28" height="28" viewBox="0 0 28 28" fill="none" xmlns="http://www.w3.org/2000/svg">
<path opacity="0.4" d="M25.6666 18.5969C25.6666 21.8519 23.0533 24.4886 19.7983 24.5002H19.7866H8.22492C4.98159 24.5002 2.33325 21.8752 2.33325 18.6202V18.6086C2.33325 18.6086 2.34025 13.4449 2.34959 10.8479C2.35075 10.3602 2.91075 10.0872 3.29225 10.3906C6.06425 12.5897 11.0214 16.5996 11.0833 16.6521C11.9116 17.3159 12.9616 17.6904 14.0349 17.6904C15.1083 17.6904 16.1583 17.3159 16.9866 16.6392C17.0484 16.5984 21.8948 12.7087 24.7088 10.4734C25.0914 10.1689 25.6538 10.4419 25.6549 10.9284C25.6666 13.5056 25.6666 18.5969 25.6666 18.5969Z" fill="white"/>
<path d="M25.0553 6.61919C24.0449 4.71519 22.0569 3.49953 19.8683 3.49953H8.22495C6.03628 3.49953 4.04828 4.71519 3.03795 6.61919C2.81161 7.04503 2.91895 7.57586 3.29578 7.87686L11.9583 14.8057C12.5649 15.2957 13.2999 15.5395 14.0349 15.5395C14.0396 15.5395 14.0431 15.5395 14.0466 15.5395C14.0501 15.5395 14.0548 15.5395 14.0583 15.5395C14.7933 15.5395 15.5283 15.2957 16.1349 14.8057L24.7974 7.87686C25.1743 7.57586 25.2816 7.04503 25.0553 6.61919Z" fill="white"/>
</svg>
