<svg width="42" height="42" viewBox="0 0 42 42" fill="none" xmlns="http://www.w3.org/2000/svg">
<path opacity="0.4" d="M32.9154 15.7867C32.1253 15.7867 31.0787 15.7692 29.7756 15.7692C26.5977 15.7692 23.9847 13.139 23.9847 9.93125V4.30325C23.9847 3.8605 23.6312 3.5 23.1928 3.5H13.9363C9.61654 3.5 6.125 7.0455 6.125 11.3907V30.247C6.125 34.8057 9.78289 38.5 14.2968 38.5H28.081C32.3852 38.5 35.875 34.9772 35.875 30.6285V16.5743C35.875 16.1298 35.5232 15.771 35.0831 15.7727C34.3432 15.778 33.456 15.7867 32.9154 15.7867Z" fill="#193D9B"/>
<path opacity="0.4" d="M28.1472 4.4929C27.6239 3.94865 26.7104 4.32315 26.7104 5.0774V9.69215C26.7104 11.6276 28.3047 13.2201 30.2402 13.2201C31.4599 13.2341 33.1539 13.2376 34.5924 13.2341C35.3292 13.2324 35.7037 12.3521 35.1927 11.8201C33.3464 9.9004 30.0407 6.4599 28.1472 4.4929Z" fill="#193D9B"/>
<path fill-rule="evenodd" clip-rule="evenodd" d="M15.7043 19.9283H21.6281C22.3473 19.9283 22.9318 19.3455 22.9318 18.6263C22.9318 17.907 22.3473 17.3225 21.6281 17.3225H15.7043C14.9851 17.3225 14.4023 17.907 14.4023 18.6263C14.4023 19.3455 14.9851 19.9283 15.7043 19.9283ZM15.7045 28.6681H25.2315C25.9508 28.6681 26.5353 28.0854 26.5353 27.3661C26.5353 26.6469 25.9508 26.0624 25.2315 26.0624H15.7045C14.9853 26.0624 14.4025 26.6469 14.4025 27.3661C14.4025 28.0854 14.9853 28.6681 15.7045 28.6681Z" fill="#193D9B"/>
</svg>
