<svg width="111" height="111" viewBox="0 0 111 111" fill="none" xmlns="http://www.w3.org/2000/svg">
<path opacity="0.4" d="M81.1873 33.7449C92.5231 33.7449 101.75 43.2714 101.75 54.9803L101.75 78.2547C101.75 89.9348 92.5463 99.4375 81.2335 99.4375L29.822 99.4375C18.4815 99.4375 9.25 89.9157 9.25 78.2069L9.25 54.9325C9.25 43.2523 18.4584 33.7449 29.7757 33.7449H34.1233L81.1873 33.7449Z" fill="#CECECE"/>
<path d="M58.0259 74.173L71.4801 60.4464C72.8676 59.0277 72.8676 56.7446 71.4708 55.3306C70.0741 53.9213 67.8217 53.926 66.4342 55.34L59.0666 62.8563L59.0666 15.1797C59.0666 13.1832 57.4709 11.5625 55.5007 11.5625C53.5351 11.5625 51.9441 13.1832 51.9441 15.1797L51.9441 62.8563L44.5718 55.34C43.1843 53.926 40.9319 53.9213 39.5352 55.3306C38.8368 56.04 38.4853 56.9654 38.4853 57.8956C38.4853 58.8163 38.8368 59.7417 39.5259 60.4464L52.9801 74.173C53.6507 74.8541 54.5572 75.2393 55.5007 75.2393C56.4488 75.2393 57.3553 74.8541 58.0259 74.173Z" fill="#CECECE"/>
</svg>
