<svg width="44" height="44" viewBox="0 0 44 44" fill="none" xmlns="http://www.w3.org/2000/svg">
<path opacity="0.4" d="M40.3332 21.9996C40.3332 32.1269 32.1253 40.3329 21.9998 40.3329C11.8743 40.3329 3.6665 32.1269 3.6665 21.9996C3.6665 11.8759 11.8743 3.66626 21.9998 3.66626C32.1253 3.66626 40.3332 11.8759 40.3332 21.9996Z" fill="#9B1919"/>
<path fill-rule="evenodd" clip-rule="evenodd" d="M23.5951 23.1562C23.5951 24.0399 22.8746 24.7604 21.9909 24.7604C21.1072 24.7604 20.3867 24.0399 20.3867 23.1562V15.0529C20.3867 14.1692 21.1072 13.4487 21.9909 13.4487C22.8746 13.4487 23.5951 14.1692 23.5951 15.0529V23.1562ZM20.3959 28.973C20.3959 28.0894 21.1127 27.3689 21.9909 27.3689C22.8947 27.3689 23.6134 28.0894 23.6134 28.973C23.6134 29.8567 22.8947 30.5772 22.0092 30.5772C21.1201 30.5772 20.3959 29.8567 20.3959 28.973Z" fill="#9B1919"/>
</svg>
